<svg width="35" height="35" viewBox="0 0 35 35" fill="none" xmlns="http://www.w3.org/2000/svg">
    <path d="M30.5738 28.7954L25.7017 23.9862C26.4257 23.1013 27.0133 22.1255 27.461 21.0658C28.0871 19.5828 28.3354 18.0054 28.3354 16.3825C28.3354 14.7597 28.0521 13.1823 27.426 11.6993C26.821 10.2653 25.9885 8.97822 24.8833 7.8765C23.7781 6.77127 22.491 5.90388 21.0605 5.2988C19.5775 4.67274 18.0001 4.35446 16.3773 4.35446C14.7544 4.35446 13.177 4.67274 11.694 5.2988C10.26 5.90388 8.97295 6.77127 7.87122 7.8765C6.76599 8.98172 5.8986 10.2688 5.29352 11.6993C4.66746 13.1823 4.34918 14.7597 4.34918 16.3825C4.34918 18.0054 4.66746 19.5828 5.29352 21.0658C5.8986 22.4998 6.76599 23.7869 7.87122 24.8886C8.97644 25.9938 10.2635 26.8612 11.694 27.4663C13.177 28.0923 14.7544 28.3407 16.3773 28.3407C18.0001 28.3407 19.5775 28.0923 21.0605 27.4663C22.2077 26.9801 23.2639 26.3261 24.2048 25.5181L29.0699 30.3203C29.2797 30.5266 29.5525 30.6281 29.8219 30.6281C30.0982 30.6281 30.3745 30.5231 30.5843 30.3098C31.0005 29.8901 30.997 29.2116 30.5738 28.7954ZM16.3773 26.2002C13.7366 26.2002 11.2533 25.2418 9.38566 23.3741C7.51796 21.5065 6.48968 19.0232 6.48968 16.3825C6.48968 13.7419 7.51796 11.2586 9.38566 9.39094C11.2533 7.52324 13.7366 6.49496 16.3773 6.49496C19.0179 6.49496 21.5012 7.52324 23.3689 9.39094C25.2366 11.2586 26.1949 13.7419 26.1949 16.3825C26.1949 19.0232 25.2366 21.5065 23.3689 23.3741C21.5012 25.2418 19.0179 26.2002 16.3773 26.2002Z" fill="#AEAEAE"/>
</svg>